<svg width="524" height="308" viewBox="0 0 524 308" fill="none" xmlns="http://www.w3.org/2000/svg">
<rect x="0.5" y="0.5" width="523" height="307" rx="9.5" stroke="#141414"/>
<path d="M291.167 116.5H232.833C228.231 116.5 224.5 120.231 224.5 124.833V183.167C224.5 187.769 228.231 191.5 232.833 191.5H291.167C295.769 191.5 299.5 187.769 299.5 183.167V124.833C299.5 120.231 295.769 116.5 291.167 116.5Z" stroke="#141414" stroke-width="2" stroke-linecap="round" stroke-linejoin="round"/>
<path d="M247.417 145.666C250.869 145.666 253.667 142.868 253.667 139.416C253.667 135.964 250.869 133.166 247.417 133.166C243.965 133.166 241.167 135.964 241.167 139.416C241.167 142.868 243.965 145.666 247.417 145.666Z" stroke="#141414" stroke-width="2" stroke-linecap="round" stroke-linejoin="round"/>
<path d="M299.5 166.499L278.666 145.666L232.833 191.499" stroke="#141414" stroke-width="2" stroke-linecap="round" stroke-linejoin="round"/>
</svg>
