<svg width="550" height="496" viewBox="0 0 550 496" fill="none" xmlns="http://www.w3.org/2000/svg">
<rect x="0.5" y="0.5" width="549" height="495" rx="9.5" stroke="#141414"/>
<path d="M304.167 210.5H245.833C241.231 210.5 237.5 214.231 237.5 218.833V277.167C237.5 281.769 241.231 285.5 245.833 285.5H304.167C308.769 285.5 312.5 281.769 312.5 277.167V218.833C312.5 214.231 308.769 210.5 304.167 210.5Z" stroke="#141414" stroke-width="2" stroke-linecap="round" stroke-linejoin="round"/>
<path d="M260.417 239.666C263.869 239.666 266.667 236.868 266.667 233.416C266.667 229.964 263.869 227.166 260.417 227.166C256.965 227.166 254.167 229.964 254.167 233.416C254.167 236.868 256.965 239.666 260.417 239.666Z" stroke="#141414" stroke-width="2" stroke-linecap="round" stroke-linejoin="round"/>
<path d="M312.5 260.499L291.666 239.666L245.833 285.499" stroke="#141414" stroke-width="2" stroke-linecap="round" stroke-linejoin="round"/>
</svg>
